# Blender v2.77 (sub 0) OBJ File: 'block_corner_6_4_a.blend'
# www.blender.org
o Cube.003
v -2.000000 -1.000000 -2.000000
v 4.000001 -1.000000 1.999999
v 4.000000 -1.000000 -2.000000
v 4.000000 -0.400000 -0.199999
v 4.000000 -0.400000 -1.699999
v 4.000000 1.000000 1.999999
v 4.000000 0.600000 -0.199999
v 4.000000 0.600000 0.200001
v -2.000001 1.000000 -1.999999
v 0.200000 0.600000 -2.000000
v 1.800000 0.600000 -2.000000
v 1.800000 -0.400000 -2.000000
v -1.999999 -1.000000 2.000000
v 3.999999 1.000000 -2.000001
v 3.800001 -0.900000 1.899999
v -1.900000 -0.900000 -1.800000
v 3.800000 -0.900000 -1.800000
v 1.800000 -0.400000 -1.800000
v 2.200000 -0.400000 -1.800001
v -1.900001 0.900000 -1.799999
v 0.200000 0.600000 -1.800000
v -0.200000 0.600000 -1.800000
v 3.800000 0.900000 1.900000
v 3.800000 0.600000 0.200001
v 3.799999 0.900000 -1.800001
v 3.800000 -0.400000 0.200001
v -1.899999 -0.900000 1.900001
v -1.899999 0.900000 1.900001
v -1.700000 -0.400000 -1.999999
v -1.700000 0.600000 -1.800000
v -1.700000 0.600000 -1.999999
v -0.200000 0.600000 -2.000000
v -1.700000 -0.400000 -1.800000
v -0.200000 -0.400000 -2.000000
v -0.200000 -0.400000 -1.800000
v 0.200000 -0.400000 -2.000000
v 1.800000 0.600000 -1.800000
v 0.200000 -0.400000 -1.800000
v 3.700000 -0.400000 -2.000001
v 3.700000 -0.400000 -1.800001
v 3.700000 0.600000 -2.000001
v 3.700000 0.600000 -1.800001
v 2.200000 -0.400000 -2.000000
v 2.200000 0.600000 -1.800001
v 2.200000 0.600000 -2.000000
v 3.999999 0.600000 -1.699999
v 3.800000 0.600000 -0.199999
v 3.800000 -0.400000 -0.199999
v 3.800000 -0.400000 -1.699999
v 4.000000 -0.400000 0.200001
v 3.800000 0.600000 1.700001
v 4.000000 0.600000 1.700001
v 4.000000 -0.400000 1.700001
v 3.800001 -0.400000 1.700001
v -1.999999 1.000000 2.000001
v 3.799999 0.600000 -1.699999
vn -0.0000 -1.0000 -0.0000
vn 1.0000 0.0000 -0.0000
vn -0.0000 0.0000 -1.0000
vn -1.0000 -0.0000 0.0000
vn 0.0000 -0.0000 1.0000
vn 0.0000 1.0000 0.0000
s 1
f 1//1 3//1 2//1
f 3//2 5//2 4//2
f 6//2 8//2 7//2
f 9//3 11//3 10//3
f 12//3 3//3 1//3
f 9//4 1//4 13//4
f 13//5 2//5 6//5
f 6//6 14//6 9//6
f 15//6 17//6 16//6
f 17//5 19//5 18//5
f 20//5 22//5 21//5
f 23//4 25//4 24//4
f 26//4 17//4 15//4
f 27//3 28//3 23//3
f 27//2 16//2 20//2
f 25//1 23//1 28//1
f 29//2 31//2 30//2
f 31//1 32//1 22//1
f 33//6 35//6 34//6
f 35//4 22//4 32//4
f 36//2 10//2 21//2
f 10//1 11//1 37//1
f 38//6 18//6 12//6
f 18//4 37//4 11//4
f 19//6 40//6 39//6
f 40//4 42//4 41//4
f 43//2 45//2 44//2
f 45//1 41//1 42//1
f 46//1 7//1 47//1
f 48//3 47//3 7//3
f 49//5 5//5 46//5
f 49//6 48//6 4//6
f 50//5 8//5 24//5
f 8//1 52//1 51//1
f 26//6 54//6 53//6
f 54//3 51//3 52//3
f 1//1 2//1 13//1
f 46//2 5//2 14//2
f 3//2 4//2 2//2
f 53//2 2//2 50//2
f 5//2 3//2 14//2
f 50//2 2//2 4//2
f 6//2 7//2 14//2
f 7//2 50//2 4//2
f 14//2 7//2 46//2
f 53//2 6//2 2//2
f 52//2 6//2 53//2
f 7//2 8//2 50//2
f 8//2 6//2 52//2
f 9//3 29//3 1//3
f 9//3 31//3 29//3
f 41//3 45//3 14//3
f 12//3 45//3 43//3
f 45//3 11//3 14//3
f 9//3 32//3 31//3
f 32//3 36//3 34//3
f 32//3 10//3 36//3
f 11//3 45//3 12//3
f 9//3 10//3 32//3
f 11//3 9//3 14//3
f 3//3 39//3 14//3
f 39//3 3//3 43//3
f 14//3 39//3 41//3
f 29//3 34//3 1//3
f 12//3 1//3 36//3
f 34//3 36//3 1//3
f 3//3 12//3 43//3
f 9//4 13//4 55//4
f 13//5 6//5 55//5
f 6//6 9//6 55//6
f 15//6 16//6 27//6
f 42//5 40//5 25//5
f 17//5 38//5 16//5
f 35//5 16//5 38//5
f 16//5 35//5 33//5
f 40//5 17//5 25//5
f 38//5 17//5 18//5
f 19//5 17//5 40//5
f 20//5 21//5 25//5
f 44//5 18//5 19//5
f 25//5 44//5 42//5
f 33//5 20//5 16//5
f 30//5 20//5 33//5
f 44//5 37//5 18//5
f 21//5 35//5 38//5
f 25//5 37//5 44//5
f 21//5 22//5 35//5
f 25//5 21//5 37//5
f 22//5 20//5 30//5
f 56//4 47//4 25//4
f 23//4 54//4 15//4
f 23//4 51//4 54//4
f 47//4 24//4 25//4
f 26//4 47//4 48//4
f 23//4 24//4 51//4
f 24//4 47//4 26//4
f 17//4 49//4 25//4
f 49//4 17//4 48//4
f 25//4 49//4 56//4
f 54//4 26//4 15//4
f 17//4 26//4 48//4
f 27//3 23//3 15//3
f 27//2 20//2 28//2
f 25//1 28//1 20//1
f 29//2 30//2 33//2
f 31//1 22//1 30//1
f 33//6 34//6 29//6
f 35//4 32//4 34//4
f 36//2 21//2 38//2
f 10//1 37//1 21//1
f 38//6 12//6 36//6
f 18//4 11//4 12//4
f 19//6 39//6 43//6
f 40//4 41//4 39//4
f 43//2 44//2 19//2
f 45//1 42//1 44//1
f 46//1 47//1 56//1
f 48//3 7//3 4//3
f 49//5 46//5 56//5
f 49//6 4//6 5//6
f 50//5 24//5 26//5
f 8//1 51//1 24//1
f 26//6 53//6 50//6
f 54//3 52//3 53//3
