# Blender v2.77 (sub 0) OBJ File: 'block_side_4_4_6_a.blend'
# www.blender.org
o Cube
v 2.000000 -1.000000 2.000000
v 2.000000 -1.000000 1.000000
v 4.000000 -1.000000 -1.000000
v 4.000000 -1.000000 -2.000000
v -2.000000 -1.000000 -2.000000
v -1.999999 -1.000000 2.000001
v 2.000001 1.000000 1.999999
v -2.000000 1.000000 2.000000
v 2.000000 1.000000 0.999999
v 2.197183 -0.400000 0.802817
v 3.752817 -0.400000 -0.752818
v 3.752817 0.600000 -0.752818
v 4.000000 1.000000 -1.000001
v 2.197182 0.600000 0.802817
v 3.999999 1.000000 -2.000001
v -2.000001 1.000000 -1.999999
v 1.800000 -0.900000 1.900000
v -1.899999 -0.900000 1.900001
v -1.900000 -0.900000 -1.900000
v 3.800000 -0.900000 -1.900000
v 3.800000 -0.900000 -1.050000
v 1.800000 -0.900000 0.950000
v 1.800000 0.900000 0.949999
v 1.800001 0.900000 1.899999
v -1.900000 0.900000 1.900000
v -1.900001 0.900000 -1.899999
v 3.799999 0.900000 -1.900001
v 3.800000 0.900000 -1.050001
v 2.072183 -0.400000 0.677817
v 2.072182 0.600000 0.677817
v 3.627817 -0.400000 -0.877818
v 3.627817 0.600000 -0.877818
vn 0.0000 1.0000 0.0000
vn -0.0000 -0.0000 -1.0000
vn -1.0000 0.0000 0.0000
vn -0.7071 -0.0000 -0.7071
vn 0.0000 0.0000 1.0000
vn 1.0000 0.0000 -0.0000
vn 0.0000 -1.0000 -0.0000
vn 0.7071 0.0000 0.7071
vn -0.7071 0.0000 0.7071
vn 0.7071 0.0000 -0.7071
s off
f 2//1 5//1 6//1
f 1//2 8//2 7//2
f 7//3 2//3 1//3
f 11//4 13//4 3//4
f 9//4 12//4 14//4
f 13//3 4//3 3//3
f 15//5 5//5 4//5
f 16//6 6//6 5//6
f 16//7 15//7 9//7
f 19//7 20//7 22//7
f 22//6 24//6 17//6
f 25//5 17//5 24//5
f 18//3 26//3 19//3
f 19//2 27//2 20//2
f 20//6 28//6 21//6
f 29//8 21//8 31//8
f 28//8 30//8 32//8
f 23//1 26//1 25//1
f 29//9 14//9 30//9
f 32//1 14//1 12//1
f 29//7 11//7 10//7
f 11//10 32//10 12//10
f 6//1 1//1 2//1
f 2//1 3//1 4//1
f 4//1 5//1 2//1
f 1//2 6//2 8//2
f 7//3 9//3 2//3
f 2//4 10//4 11//4
f 11//4 12//4 13//4
f 3//4 2//4 11//4
f 14//4 10//4 9//4
f 9//4 13//4 12//4
f 10//4 2//4 9//4
f 13//3 15//3 4//3
f 15//5 16//5 5//5
f 16//6 8//6 6//6
f 9//7 7//7 8//7
f 8//7 16//7 9//7
f 15//7 13//7 9//7
f 22//7 17//7 18//7
f 18//7 19//7 22//7
f 20//7 21//7 22//7
f 22//6 23//6 24//6
f 25//5 18//5 17//5
f 18//3 25//3 26//3
f 19//2 26//2 27//2
f 20//6 27//6 28//6
f 29//8 30//8 23//8
f 22//8 21//8 29//8
f 29//8 23//8 22//8
f 32//8 31//8 28//8
f 28//8 23//8 30//8
f 31//8 21//8 28//8
f 25//1 24//1 23//1
f 23//1 28//1 27//1
f 27//1 26//1 23//1
f 29//9 10//9 14//9
f 32//1 30//1 14//1
f 29//7 31//7 11//7
f 11//10 31//10 32//10
