# Blender v2.77 (sub 0) OBJ File: 'block_side_4_8_4_a.blend'
# www.blender.org
o Cube.001
v 2.000000 1.000000 -3.100001
v 2.000000 -0.999999 -4.000000
v 2.000000 -1.000000 -3.100000
v -2.000000 -0.999999 -4.000000
v 2.000000 -1.000000 -1.000000
v 2.000000 -0.400000 -2.750000
v 2.000000 1.000000 -1.000001
v 2.000000 0.600001 -2.750000
v 2.000000 0.600000 -1.250000
v -2.000001 1.000001 -3.999999
v 1.999999 1.000001 -4.000001
v 2.000000 -1.000000 1.000000
v -2.000000 -1.000001 4.000000
v 2.000000 -0.400000 0.750000
v 2.000000 -0.400000 -0.750000
v 2.000000 0.600000 0.750000
v 2.000000 0.600000 -0.750000
v 2.000000 1.000000 1.000001
v -2.000000 0.999999 3.999999
v 4.000000 -1.000001 4.000000
v 4.000000 -1.000000 3.000000
v 4.000000 1.000000 3.000001
v 3.727817 0.600000 2.727818
v 3.727817 -0.400000 2.727818
v 3.999999 0.999999 4.000001
v 1.800000 -0.899999 -3.900000
v 1.800000 0.900000 -3.100001
v 1.800000 -0.899999 -3.100000
v 1.800000 0.600001 -2.750000
v 1.800000 0.900000 -1.100001
v 1.800000 -0.400000 -2.750000
v -1.900000 -0.899999 -3.900000
v 1.799999 0.900001 -3.900001
v 1.800000 0.600000 0.750000
v 1.800000 0.900000 1.100001
v 1.800000 -0.400000 0.750000
v 1.800000 -0.900000 1.100000
v 1.800000 -0.900000 -1.100000
v -1.900000 -0.900001 3.900000
v -1.900000 0.899999 3.899999
v -1.900001 0.900001 -3.899999
v 3.577817 0.600000 2.877818
v 2.022182 0.600000 1.322183
v 3.577817 -0.400000 2.877818
v 3.800000 0.899999 3.100001
v 3.800000 -0.900000 3.100000
v 3.800000 -0.900001 3.900000
v 3.799999 0.899999 3.900001
v 1.800000 -0.400000 -1.250000
v 1.800000 0.600000 -1.250000
v 2.000000 -0.400000 -1.250000
v 2.022182 -0.400000 1.322182
v 2.172182 0.600000 1.172183
v 2.172182 -0.400000 1.172182
v 1.800000 0.600000 -0.750000
v 1.800000 -0.400000 -0.750000
vn 1.0000 0.0000 -0.0000
vn -0.0000 -1.0000 -0.0000
vn -0.0000 1.0000 0.0000
vn -0.0000 -0.0000 -1.0000
vn -1.0000 0.0000 0.0000
vn 0.7071 0.0000 -0.7071
vn -0.0000 0.0000 1.0000
vn -0.7071 -0.0000 0.7071
vn 0.7071 -0.0000 0.7071
vn -0.7071 0.0000 -0.7071
s 1
f 1//1 3//1 2//1
f 3//2 5//2 4//2
f 6//1 3//1 1//1
f 7//1 9//1 8//1
f 1//3 11//3 10//3
f 11//4 2//4 4//4
f 12//2 13//2 4//2
f 5//1 15//1 14//1
f 16//1 17//1 7//1
f 10//3 19//3 18//3
f 19//5 10//5 4//5
f 12//2 21//2 20//2
f 22//6 24//6 23//6
f 23//6 18//6 22//6
f 25//3 22//3 18//3
f 13//7 20//7 25//7
f 20//1 21//1 22//1
f 26//5 28//5 27//5
f 29//5 30//5 27//5
f 27//5 31//5 29//5
f 28//3 26//3 32//3
f 32//7 26//7 33//7
f 34//5 36//5 35//5
f 36//5 38//5 37//5
f 32//3 39//3 37//3
f 32//1 41//1 40//1
f 35//2 40//2 41//2
f 35//8 43//8 42//8
f 44//8 46//8 45//8
f 47//3 46//3 37//3
f 48//4 47//4 39//4
f 35//2 45//2 48//2
f 45//5 46//5 47//5
f 49//4 50//4 9//4
f 50//2 29//2 8//2
f 31//3 49//3 51//3
f 6//7 8//7 29//7
f 52//9 54//9 53//9
f 52//3 44//3 24//3
f 42//2 43//2 53//2
f 23//10 24//10 44//10
f 17//2 16//2 34//2
f 14//4 36//4 34//4
f 55//7 56//7 15//7
f 56//3 36//3 14//3
f 41//2 33//2 27//2
f 1//1 2//1 11//1
f 3//2 4//2 2//2
f 5//1 6//1 51//1
f 6//1 1//1 8//1
f 3//1 6//1 5//1
f 9//1 7//1 51//1
f 7//1 8//1 1//1
f 51//1 7//1 5//1
f 1//3 10//3 7//3
f 11//4 4//4 10//4
f 12//2 4//2 5//2
f 15//1 7//1 17//1
f 5//1 14//1 12//1
f 15//1 5//1 7//1
f 16//1 18//1 14//1
f 18//1 16//1 7//1
f 14//1 18//1 12//1
f 10//3 18//3 7//3
f 19//5 4//5 13//5
f 12//2 20//2 13//2
f 24//6 12//6 54//6
f 21//6 24//6 22//6
f 24//6 21//6 12//6
f 12//6 18//6 54//6
f 53//6 18//6 23//6
f 18//6 53//6 54//6
f 25//3 18//3 19//3
f 13//7 25//7 19//7
f 20//1 22//1 25//1
f 26//5 27//5 33//5
f 38//5 30//5 49//5
f 50//5 30//5 29//5
f 30//5 50//5 49//5
f 31//5 38//5 49//5
f 28//5 31//5 27//5
f 31//5 28//5 38//5
f 28//3 32//3 38//3
f 32//7 33//7 41//7
f 34//5 30//5 55//5
f 35//5 36//5 37//5
f 34//5 35//5 30//5
f 30//5 56//5 55//5
f 56//5 38//5 36//5
f 38//5 56//5 30//5
f 32//3 37//3 38//3
f 32//1 40//1 39//1
f 35//2 41//2 30//2
f 43//8 35//8 52//8
f 35//8 42//8 45//8
f 52//8 35//8 37//8
f 37//8 44//8 52//8
f 44//8 45//8 42//8
f 46//8 44//8 37//8
f 47//3 37//3 39//3
f 48//4 39//4 40//4
f 35//2 48//2 40//2
f 45//5 47//5 48//5
f 49//4 9//4 51//4
f 50//2 8//2 9//2
f 31//3 51//3 6//3
f 6//7 29//7 31//7
f 52//9 53//9 43//9
f 52//3 24//3 54//3
f 42//2 53//2 23//2
f 23//10 44//10 42//10
f 17//2 34//2 55//2
f 14//4 34//4 16//4
f 55//7 15//7 17//7
f 56//3 14//3 15//3
f 41//2 27//2 30//2
