# Blender v2.77 (sub 0) OBJ File: 'block_corner_6_6_b.blend'
# www.blender.org
o Cube
v 4.000000 -1.000000 2.000000
v 2.000000 -1.000000 4.000000
v -2.000000 -1.000000 4.000000
v -2.000000 -1.000000 -2.000000
v 4.000001 -1.000000 -2.000000
v 3.999999 1.000000 2.000001
v 4.000000 1.000000 -2.000000
v 1.999999 1.000000 4.000000
v 2.292893 0.600000 3.707106
v 3.707107 0.600000 2.292892
v 3.707107 -0.400000 2.292892
v 2.292893 -0.400000 3.707106
v -2.000001 1.000000 3.999999
v -1.999999 1.000000 -2.000000
v 3.800000 -0.900000 1.950000
v 3.800000 -0.900000 -1.899999
v -1.900000 -0.900000 -1.900000
v -1.900000 -0.900000 3.800000
v 1.950000 -0.900000 3.800000
v 1.949999 0.900000 3.800000
v 2.167893 0.600000 3.582106
v 2.167894 -0.400000 3.582106
v 3.582108 -0.400000 2.167893
v 3.799999 0.900000 1.950001
v 3.582108 0.600000 2.167893
v 3.800000 0.900000 -1.900000
v -1.900000 0.900000 -1.900001
v -1.900001 0.900000 3.799999
vn 0.0000 -1.0000 -0.0000
vn 1.0000 0.0000 0.0000
vn 0.7071 0.0000 0.7071
vn 0.0000 0.0000 1.0000
vn -1.0000 -0.0000 0.0000
vn 0.0000 -0.0000 -1.0000
vn 0.0000 1.0000 0.0000
vn -0.7071 -0.0000 -0.7071
vn -0.7071 0.0000 0.7071
vn 0.7071 -0.0000 -0.7071
s off
f 2//1 4//1 1//1
f 1//2 7//2 6//2
f 11//3 1//3 6//3
f 1//3 11//3 12//3
f 8//4 3//4 2//4
f 13//5 4//5 3//5
f 4//6 7//6 5//6
f 14//7 13//7 8//7
f 17//7 18//7 19//7
f 19//8 22//8 15//8
f 24//8 21//8 20//8
f 26//5 15//5 24//5
f 17//4 26//4 27//4
f 17//2 28//2 18//2
f 18//6 20//6 19//6
f 20//1 27//1 24//1
f 23//7 12//7 11//7
f 23//9 10//9 25//9
f 9//10 22//10 21//10
f 9//1 25//1 10//1
f 5//1 1//1 4//1
f 2//1 3//1 4//1
f 1//2 5//2 7//2
f 6//3 8//3 9//3
f 10//3 11//3 6//3
f 6//3 9//3 10//3
f 9//3 8//3 12//3
f 2//3 1//3 12//3
f 12//3 8//3 2//3
f 8//4 13//4 3//4
f 13//5 14//5 4//5
f 4//6 14//6 7//6
f 8//7 6//7 14//7
f 7//7 14//7 6//7
f 19//7 15//7 17//7
f 16//7 17//7 15//7
f 19//8 20//8 22//8
f 22//8 23//8 15//8
f 20//8 21//8 22//8
f 24//8 15//8 23//8
f 25//8 21//8 24//8
f 24//8 23//8 25//8
f 26//5 16//5 15//5
f 17//4 16//4 26//4
f 17//2 27//2 28//2
f 18//6 28//6 20//6
f 26//1 24//1 27//1
f 20//1 28//1 27//1
f 23//7 22//7 12//7
f 23//9 11//9 10//9
f 9//10 12//10 22//10
f 9//1 21//1 25//1
